<svg viewBox="0 0 72 72" fill="none" xmlns="http://www.w3.org/2000/svg">
<g filter="url(#filter0_dd)">
<mask id="mask0" mask-type="alpha" maskUnits="userSpaceOnUse" x="4" y="2" width="64" height="64">
<circle cx="36" cy="34" r="32" fill="#4B016F"/>
</mask>
<g mask="url(#mask0)">
<rect x="4" y="2" width="64" height="71" fill="url(#paint0_linear)"/>
<path d="M-9.24023 -51.5L71.5197 0.90247L31.142 27.1284L-9.24023 0.884483V-51.5Z" fill="url(#paint1_linear)"/>
<path d="M-9.24023 53.3947L71.5197 0.902344L71.4253 53.3947L-9.24023 105.734V53.3947Z" fill="url(#paint2_linear)"/>
</g>
<g clip-path="url(#clip0)">
<path d="M35.488 33.8648V24.293L20.4863 33.7656L28.0637 38.5515L35.488 33.8648Z" fill="white"/>
<path d="M20 34.6582L20.0255 44.23L35.4864 54.0002V44.4284L20 34.6582Z" fill="white"/>
<path d="M43.7005 28.6801L51.7371 23.5966L36.5059 14V24.1421L43.7005 28.6801Z" fill="white"/>
<path d="M52.2219 24.4922L36.5059 34.4111V43.9581L52.1964 34.064L52.2219 24.4922Z" fill="white"/>
</g>
</g>
<defs>
<filter id="filter0_dd" x="0" y="0" width="72" height="72" filterUnits="userSpaceOnUse" color-interpolation-filters="sRGB">
<feFlood flood-opacity="0" result="BackgroundImageFix"/>
<feColorMatrix in="SourceAlpha" type="matrix" values="0 0 0 0 0 0 0 0 0 0 0 0 0 0 0 0 0 0 127 0"/>
<feOffset dy="2"/>
<feGaussianBlur stdDeviation="2"/>
<feColorMatrix type="matrix" values="0 0 0 0 0.141176 0 0 0 0 0.164706 0 0 0 0 0.180392 0 0 0 0.1 0"/>
<feBlend mode="normal" in2="BackgroundImageFix" result="effect1_dropShadow"/>
<feColorMatrix in="SourceAlpha" type="matrix" values="0 0 0 0 0 0 0 0 0 0 0 0 0 0 0 0 0 0 127 0"/>
<feOffset dy="1"/>
<feGaussianBlur stdDeviation="0.5"/>
<feColorMatrix type="matrix" values="0 0 0 0 0.141176 0 0 0 0 0.164706 0 0 0 0 0.180392 0 0 0 0.1 0"/>
<feBlend mode="normal" in2="effect1_dropShadow" result="effect2_dropShadow"/>
<feBlend mode="normal" in="SourceGraphic" in2="effect2_dropShadow" result="shape"/>
</filter>
<linearGradient id="paint0_linear" x1="69.5928" y1="32.5694" x2="11.2823" y2="-8.3718" gradientUnits="userSpaceOnUse">
<stop stop-color="#8035E2"/>
<stop offset="1" stop-color="#6003DB"/>
</linearGradient>
<linearGradient id="paint1_linear" x1="-11.2589" y1="-26.0077" x2="57.3079" y2="16.6637" gradientUnits="userSpaceOnUse">
<stop stop-color="#DFCCF8"/>
<stop offset="1" stop-color="#B288E9"/>
</linearGradient>
<linearGradient id="paint2_linear" x1="70.3266" y1="29.8979" x2="1.00503" y2="71.332" gradientUnits="userSpaceOnUse">
<stop stop-color="#9960E2"/>
<stop offset="1" stop-color="#7F39DB"/>
</linearGradient>
<clipPath id="clip0">
<rect width="32.2222" height="40" fill="white" transform="translate(20 14)"/>
</clipPath>
</defs>
</svg>
