<svg width="86" height="34" viewBox="0 0 86 34" fill="none" xmlns="http://www.w3.org/2000/svg">
<g clip-path="url(#clip0)">
<path d="M23.6846 28.0764V16.0508H31.6453V18.3701H26.3602V20.9471H30.8506V23.164H26.3602V25.7585H31.6792V28.0779H23.6846V28.0764Z" fill="#B7BFCA"/>
<path d="M32.8721 28.0756V19.0385H34.2702L34.9443 19.8804C35.6875 19.1761 36.5677 18.832 37.5861 18.832C39.5715 18.832 40.746 20.1557 40.746 22.3535V28.0742H38.294V22.4926C38.294 21.5306 37.776 21.0328 37.0327 21.0328C36.394 21.0328 35.8244 21.3241 35.3225 21.8922V28.0771H32.8721V28.0756Z" fill="#B7BFCA"/>
<path d="M48.5001 28.0754L47.826 27.2335C47.0828 27.9378 46.185 28.2818 45.1665 28.2818C43.3018 28.2818 41.9375 27.1485 41.9375 24.9654V22.1307C41.9375 21.0486 42.248 20.2228 42.8529 19.6737C43.4578 19.1071 44.2349 18.8318 45.1665 18.8318C46.0982 18.8318 46.8591 19.0719 47.4463 19.5697V15.9648H49.8982V28.0754H48.5001ZM47.4463 25.2246V21.8905C46.8767 21.3239 46.2718 21.031 45.6669 21.031C45.0282 21.031 44.3894 21.5128 44.3894 22.3196V24.7941C44.3894 25.6023 45.0282 26.0826 45.6669 26.0826C46.2718 26.0826 46.8767 25.7912 47.4463 25.2246Z" fill="#B7BFCA"/>
<path d="M52.8347 19.0385L53.5088 19.8804C54.2859 19.1761 55.166 18.832 56.1682 18.832C58.0329 18.832 59.3973 19.9492 59.3973 22.1309V24.9656C59.3973 26.0477 59.0867 26.8721 58.4818 27.4402C57.8769 28.0068 57.0999 28.2821 56.1682 28.2821C55.2351 28.2821 54.4757 28.042 53.8885 27.5427V32.2501H51.4365V19.0385H52.8347ZM56.9453 24.7943V22.3198C56.9453 21.5115 56.3066 21.0313 55.6678 21.0313C55.0629 21.0313 54.4595 21.3227 53.8885 21.8908V25.2233C54.458 25.79 55.0629 26.0828 55.6678 26.0828C56.3066 26.0828 56.9453 25.6026 56.9453 24.7943Z" fill="#B7BFCA"/>
<path d="M66.547 28.0756L65.8729 27.2337C65.1297 27.938 64.2158 28.2821 63.1267 28.2821C62.2627 28.2821 61.5386 28.042 60.9514 27.5778C60.3642 27.0961 60.0713 26.4269 60.0713 25.5674C60.0713 23.6947 61.2973 22.6287 63.733 22.6287H65.5124V22.1309C65.5124 21.3915 65.0811 21.0313 64.1996 21.0313C63.318 21.0313 62.8868 21.3227 62.8868 21.9245H60.4863C60.4863 20.0517 61.7638 18.832 64.1996 18.832C66.6353 18.832 67.9643 20.0517 67.9643 21.9596V28.0756H66.547ZM65.5109 25.3449V24.3477H63.7315C62.9191 24.3477 62.5232 24.6391 62.5232 25.2409C62.5232 25.7739 62.9029 26.1341 63.6462 26.1341C64.4056 26.1341 65.0267 25.8764 65.5109 25.3449Z" fill="#B7BFCA"/>
<path d="M69.9833 27.3562C69.2577 26.7383 68.878 25.9476 68.8604 24.9681H71.2431C71.3991 25.7412 72.0202 26.119 73.1255 26.119C73.8673 26.119 74.3176 25.8788 74.3176 25.4835C74.3176 25.157 74.0586 24.9344 73.5229 24.7968L71.2946 24.2301C69.8273 23.8523 69.0841 23.0441 69.0841 21.7907C69.0841 19.9517 70.4307 18.8359 72.762 18.8359C74.9902 18.8359 76.4929 20.0556 76.5621 21.9796H74.1955C74.0056 21.3266 73.4699 21.0001 72.6074 21.0001C71.848 21.0001 71.4683 21.2241 71.4683 21.6531C71.4683 21.8932 71.7097 22.0821 72.1939 22.2022L74.5767 22.804C75.9925 23.1642 76.7004 24.0061 76.7004 25.2946C76.7004 27.1673 75.2331 28.2845 72.9018 28.2845C71.692 28.2831 70.7251 27.9741 69.9833 27.3562Z" fill="#B7BFCA"/>
<path d="M78.3417 27.3562C77.6161 26.7383 77.2364 25.9476 77.2188 24.9681H79.6015C79.7575 25.7412 80.3786 26.119 81.4839 26.119C82.2257 26.119 82.676 25.8788 82.676 25.4835C82.676 25.157 82.417 24.9344 81.8813 24.7968L79.653 24.2301C78.1857 23.8523 77.4425 23.0441 77.4425 21.7907C77.4425 19.9517 78.7891 18.8359 81.1204 18.8359C83.3486 18.8359 84.8513 20.0556 84.9205 21.9796H82.5539C82.364 21.3266 81.8283 21.0001 80.9658 21.0001C80.2064 21.0001 79.8267 21.2241 79.8267 21.6531C79.8267 21.8932 80.0681 22.0821 80.5523 22.2022L82.9351 22.804C84.3509 23.1642 85.0588 24.0061 85.0588 25.2946C85.0588 27.1673 83.5915 28.2845 81.2602 28.2845C80.0504 28.2831 79.0835 27.9741 78.3417 27.3562Z" fill="#B7BFCA"/>
<path d="M9.29297 10L18.5857 15.9989L13.9393 19.0005L9.29297 15.9974V10Z" fill="#B7BFCA" fill-opacity="0.75"/>
<path opacity="0.75" d="M9.29268 16.0098L0 22.0101L4.64634 25.0118L9.29268 22.0072V16.0098Z" fill="#B7BFCA"/>
<path d="M9.29297 22.0072L18.5857 15.998L18.5754 22.0072L9.29297 27.9988V22.0072Z" fill="#B7BFCA"/>
<path d="M9.29268 28.0092L0 22L0.0117741 28.0092L9.29268 34.0007V28.0092Z" fill="#B7BFCA"/>
</g>
<path d="M24.8 11V8.21H26.86C28.06 8.21 28.79 7.4 28.79 6.11C28.79 4.82 28.06 4 26.86 4H23.93V11H24.8ZM24.8 4.77H26.71C27.43 4.77 27.9 5.26 27.9 6.11C27.9 6.95 27.43 7.44 26.71 7.44H24.8V4.77ZM31.8142 10.39C30.9642 10.39 30.4742 9.89 30.4742 9.18V7.68C30.4742 6.97 30.9642 6.47 31.8142 6.47C32.6842 6.47 33.1442 6.97 33.1442 7.68V9.18C33.1442 9.89 32.6842 10.39 31.8142 10.39ZM29.6742 9.21C29.6742 10.34 30.4442 11.12 31.8142 11.12C33.1842 11.12 33.9442 10.34 33.9442 9.21V7.65C33.9442 6.52 33.1842 5.74 31.8142 5.74C30.4442 5.74 29.6742 6.52 29.6742 7.65V9.21ZM37.813 6.83L36.723 9.92L35.753 5.86H35.023V6.24L36.213 11H37.003L38.103 8.07L39.193 11H39.973L41.163 6.24V5.86H40.443L39.483 9.92L38.393 6.83H37.813ZM44.3923 11.12C45.6223 11.12 46.3523 10.49 46.4423 9.46H45.6423C45.5423 10.08 45.1223 10.39 44.3923 10.39C43.5423 10.39 43.0523 9.92 43.0523 9.21V8.7H46.4723V7.63C46.4723 6.47 45.6823 5.74 44.3923 5.74C43.0723 5.74 42.2523 6.49 42.2523 7.65V9.23C42.2523 10.39 43.0623 11.12 44.3923 11.12ZM43.0523 7.63C43.0523 6.94 43.5323 6.47 44.3623 6.47C45.2023 6.47 45.6723 6.94 45.6723 7.63V8.05H43.0523V7.63ZM48.6925 11V7.24C49.0925 6.76 49.6325 6.52 50.3025 6.52H50.4125V5.74H50.2825C49.6425 5.74 49.0825 6.01 48.6025 6.54L48.3125 5.86H47.8925V11H48.6925ZM53.3865 11.12C54.6165 11.12 55.3465 10.49 55.4365 9.46H54.6365C54.5365 10.08 54.1165 10.39 53.3865 10.39C52.5365 10.39 52.0465 9.92 52.0465 9.21V8.7H55.4665V7.63C55.4665 6.47 54.6765 5.74 53.3865 5.74C52.0665 5.74 51.2465 6.49 51.2465 7.65V9.23C51.2465 10.39 52.0565 11.12 53.3865 11.12ZM52.0465 7.63C52.0465 6.94 52.5265 6.47 53.3565 6.47C54.1965 6.47 54.6665 6.94 54.6665 7.63V8.05H52.0465V7.63ZM58.5466 11.12C59.2166 11.12 59.7766 10.85 60.2466 10.32L60.5266 11H61.0066V3.95H60.2066V6.49C59.7866 5.99 59.2466 5.74 58.5766 5.74C57.4666 5.74 56.7366 6.43 56.7366 7.63V9.23C56.7366 10.43 57.4666 11.12 58.5466 11.12ZM58.6966 10.39C58.0066 10.39 57.5366 9.9 57.5366 9.17V7.69C57.5366 6.96 58.0066 6.47 58.6866 6.47C59.1966 6.47 59.7066 6.74 60.2066 7.28V9.58C59.7066 10.12 59.2066 10.39 58.6966 10.39ZM67.6181 11.12C68.6981 11.12 69.4281 10.43 69.4281 9.23V7.63C69.4281 6.43 68.6981 5.74 67.5881 5.74C66.9181 5.74 66.3781 5.99 65.9581 6.49V3.95H65.1581V11H65.6381L65.9181 10.32C66.3881 10.85 66.9481 11.12 67.6181 11.12ZM67.4681 10.39C66.9581 10.39 66.4581 10.12 65.9581 9.58V7.28C66.4581 6.74 66.9681 6.47 67.4781 6.47C68.1581 6.47 68.6281 6.96 68.6281 7.69V9.17C68.6281 9.9 68.1581 10.39 67.4681 10.39ZM72.3694 12.6L74.9294 6.24V5.86H74.1994L72.6594 9.92L71.0894 5.86H70.3394V6.24L72.2694 11L71.6994 12.3V12.6H72.3694Z" fill="#B7BFCA"/>
<defs>
<clipPath id="clip0">
<rect y="10" width="85.0588" height="24" fill="white"/>
</clipPath>
</defs>
</svg>
